# xmcd
#
# Track frame offsets:
#	150
#	26608
#	63951
#	93687
#	140412
#	163404
#	187188
#
# Disc length: 2878 seconds
#
# Revision: 0
# Processed by: cddbd v1.5.2PL0 Copyright (c) Steve Scherf et al.
# Submitted via: audiograbber 1.83.01
#
DISCID=650b3c07
DTITLE=Driftin - Manila
DYEAR=2010
DGENRE=Blues
TTITLE0=Manila Rope Man
TTITLE1=Reggea and Groove
TTITLE2=Conversation #1
TTITLE3=Conversation #2
TTITLE4=Clean Love
TTITLE5=Where is my Mojo
TTITLE6=Dear Mr. Fantasy
EXTD=
EXTT0=
EXTT1=
EXTT2=
EXTT3=
EXTT4=
EXTT5=
EXTT6=
PLAYORDER=
